<?xml version="1.0" standalone="no"?><!DOCTYPE svg PUBLIC "-//W3C//DTD SVG 1.1//EN" "http://www.w3.org/Graphics/SVG/1.1/DTD/svg11.dtd"><svg class="icon" width="200px" height="200.00px" viewBox="0 0 1024 1024" version="1.1" xmlns="http://www.w3.org/2000/svg"><path d="M932.977778 620.088889c-102.4 142.222222-256 233.244444-420.977778 233.244444s-318.577778-91.022222-420.977778-233.244444c-45.511111-62.577778-45.511111-153.6 0-216.177778 102.4-142.222222 256-233.244444 420.977778-233.244444 170.666667 0 318.577778 91.022222 420.977778 233.244444 45.511111 62.577778 45.511111 153.6 0 216.177778z m-39.822222-164.977778c-96.711111-142.222222-233.244444-227.555556-381.155556-227.555555-147.911111 0-284.444444 79.644444-381.155556 227.555555-22.755556 34.133333-22.755556 85.333333 0 119.466667 96.711111 142.222222 233.244444 227.555556 381.155556 227.555555 147.911111 0 284.444444-79.644444 381.155556-227.555555 22.755556-39.822222 22.755556-85.333333 0-119.466667z m-381.155556 284.444445c-125.155556 0-227.555556-102.4-227.555556-227.555556s102.4-227.555556 227.555556-227.555556 227.555556 102.4 227.555556 227.555556-102.4 227.555556-227.555556 227.555556z m0-398.222223c-96.711111 0-170.666667 73.955556-170.666667 170.666667 0 45.511111 17.066667 91.022222 51.2 119.466667s73.955556 51.2 119.466667 51.2 91.022222-17.066667 119.466667-51.2 51.2-73.955556 51.2-119.466667c0-96.711111-73.955556-170.666667-170.666667-170.666667z" fill="#FFFFFF" /><path d="M932.977778 620.088889c-102.4 142.222222-256 233.244444-420.977778 233.244444s-318.577778-91.022222-420.977778-233.244444c-45.511111-62.577778-45.511111-153.6 0-216.177778 102.4-142.222222 256-233.244444 420.977778-233.244444 170.666667 0 318.577778 91.022222 420.977778 233.244444 45.511111 62.577778 45.511111 153.6 0 216.177778z m-39.822222-164.977778c-96.711111-142.222222-233.244444-227.555556-381.155556-227.555555-147.911111 0-284.444444 79.644444-381.155556 227.555555-22.755556 34.133333-22.755556 85.333333 0 119.466667 96.711111 142.222222 233.244444 227.555556 381.155556 227.555555 147.911111 0 284.444444-79.644444 381.155556-227.555555 22.755556-39.822222 22.755556-85.333333 0-119.466667z m-381.155556 284.444445c-125.155556 0-227.555556-102.4-227.555556-227.555556s102.4-227.555556 227.555556-227.555556 227.555556 102.4 227.555556 227.555556-102.4 227.555556-227.555556 227.555556z m0-398.222223c-96.711111 0-170.666667 73.955556-170.666667 170.666667 0 45.511111 17.066667 91.022222 51.2 119.466667s73.955556 51.2 119.466667 51.2 91.022222-17.066667 119.466667-51.2 51.2-73.955556 51.2-119.466667c0-96.711111-73.955556-170.666667-170.666667-170.666667z" fill="#5D637E" /></svg>